<svg width="866" height="618" viewBox="0 0 866 618" fill="none" xmlns="http://www.w3.org/2000/svg">
<g filter="url(#filter0_f_891_14860)">
<ellipse cx="402" cy="319" rx="114" ry="109" fill="#E7B101"/>
</g>
<g clip-path="url(#clip0_891_14860)">
<rect x="274" y="191" width="269" height="269" rx="85.7681" fill="url(#paint0_linear_891_14860)"/>
<g opacity="0.4">
<g filter="url(#filter1_f_891_14860)">
<path d="M25.9277 275.563C81.5279 263.277 733.867 176.213 752.843 262.095C649.588 347.52 685.991 499.597 630.391 511.883C514.1 533.236 435.025 401.453 299.419 404.279C163.814 407.105 -29.6725 287.848 25.9277 275.563Z" fill="#F1AD3E"/>
</g>
<g filter="url(#filter2_f_891_14860)">
<path d="M531.38 245.288C570.499 236.644 613.039 278.638 626.395 339.084C639.751 399.53 649.593 472.088 610.474 480.731C571.355 489.375 489.262 369.385 391.731 355.386C378.374 294.939 492.261 253.931 531.38 245.288Z" fill="#FFD13D"/>
</g>
<g filter="url(#filter3_f_891_14860)">
<path d="M538.675 188.317C565.612 182.365 577.637 230.159 589.288 282.889C600.939 335.619 639.156 438.574 580.868 379.268C528.019 332.616 531.378 340.886 470.008 309.245C458.357 256.515 511.738 194.269 538.675 188.317Z" fill="white"/>
</g>
</g>
</g>
<rect x="271.271" y="188.271" width="274.458" height="274.458" rx="88.4971" stroke="url(#paint1_linear_891_14860)" stroke-width="5.45797"/>
<g clip-path="url(#clip1_891_14860)">
<rect x="363" y="280" width="90" height="90" rx="20" fill="url(#paint2_linear_891_14860)"/>
<g opacity="0.4">
<g filter="url(#filter4_f_891_14860)">
<path d="M380.776 532.834C374.65 508.101 328.306 217.274 366.509 207.811C405.893 253.032 473.51 235.023 479.636 259.756C490.507 311.535 432.453 348.402 435.254 409.031C438.056 469.66 386.903 557.566 380.776 532.834Z" fill="#F1AD3E"/>
</g>
<g filter="url(#filter5_f_891_14860)">
<path d="M361.504 307.067C357.194 289.666 375.497 270.16 402.385 263.5C429.274 256.84 461.619 251.614 465.93 269.016C470.24 286.417 417.495 324.501 412.339 368.289C385.45 374.949 365.814 324.469 361.504 307.067Z" fill="#FFD13D"/>
</g>
<g filter="url(#filter6_f_891_14860)">
<path d="M335.932 304.452C332.964 292.47 354.207 286.549 377.663 280.739C401.119 274.929 446.741 256.666 420.872 283.413C400.603 307.583 404.264 305.986 390.806 333.798C367.35 339.608 338.9 316.435 335.932 304.452Z" fill="white"/>
</g>
</g>
<path fill-rule="evenodd" clip-rule="evenodd" d="M411.032 321.549C409.758 320.697 408.259 320.243 406.727 320.243V312.493C409.792 312.493 412.789 313.402 415.338 315.105C417.887 316.808 419.874 319.229 421.047 322.061C422.22 324.893 422.527 328.01 421.929 331.017C421.331 334.023 419.854 336.785 417.687 338.953C415.519 341.121 412.757 342.597 409.75 343.195C406.744 343.793 403.627 343.486 400.795 342.313C397.963 341.14 395.542 339.153 393.839 336.604C392.136 334.055 391.227 331.058 391.227 327.993H398.977C398.977 329.525 399.431 331.024 400.283 332.298C401.134 333.573 402.345 334.566 403.761 335.153C405.177 335.739 406.735 335.893 408.239 335.594C409.742 335.295 411.123 334.557 412.207 333.473C413.291 332.389 414.029 331.008 414.328 329.505C414.627 328.001 414.473 326.443 413.887 325.027C413.3 323.611 412.307 322.4 411.032 321.549Z" fill="#D4AE4F"/>
<path fill-rule="evenodd" clip-rule="evenodd" d="M398.977 312.493C398.977 313.51 398.776 314.518 398.387 315.458C397.997 316.399 397.426 317.253 396.707 317.973C395.987 318.692 395.133 319.263 394.192 319.653C393.252 320.042 392.244 320.243 391.227 320.243L391.227 327.993C393.262 327.993 395.278 327.592 397.158 326.813C399.039 326.034 400.747 324.892 402.187 323.453C403.626 322.014 404.768 320.305 405.547 318.424C406.326 316.544 406.727 314.528 406.727 312.493L398.977 312.493Z" fill="#D4AE4F"/>
</g>
<rect x="361.5" y="278.5" width="93" height="93" rx="21.5" stroke="url(#paint3_linear_891_14860)" stroke-width="3"/>
<rect x="-2.92796" y="2.92796" width="394.856" height="394.856" rx="126.957" transform="matrix(1 0 0 -1 214 525.856)" stroke="url(#paint4_linear_891_14860)" stroke-width="5.85591"/>
<rect x="666.045" y="583.045" width="515.091" height="515.091" rx="165.335" transform="rotate(180 666.045 583.045)" stroke="url(#paint5_linear_891_14860)" stroke-width="6.0906"/>
<defs>
<filter id="filter0_f_891_14860" x="157.8" y="79.8" width="488.4" height="478.4" filterUnits="userSpaceOnUse" color-interpolation-filters="sRGB">
<feFlood flood-opacity="0" result="BackgroundImageFix"/>
<feBlend mode="normal" in="SourceGraphic" in2="BackgroundImageFix" result="shape"/>
<feGaussianBlur stdDeviation="65.1" result="effect1_foregroundBlur_891_14860"/>
</filter>
<filter id="filter1_f_891_14860" x="-74.2713" y="134.245" width="917.527" height="470.391" filterUnits="userSpaceOnUse" color-interpolation-filters="sRGB">
<feFlood flood-opacity="0" result="BackgroundImageFix"/>
<feBlend mode="normal" in="SourceGraphic" in2="BackgroundImageFix" result="shape"/>
<feGaussianBlur stdDeviation="45.206" result="effect1_foregroundBlur_891_14860"/>
</filter>
<filter id="filter2_f_891_14860" x="328.219" y="181.73" width="372.391" height="361.876" filterUnits="userSpaceOnUse" color-interpolation-filters="sRGB">
<feFlood flood-opacity="0" result="BackgroundImageFix"/>
<feBlend mode="normal" in="SourceGraphic" in2="BackgroundImageFix" result="shape"/>
<feGaussianBlur stdDeviation="31.2149" result="effect1_foregroundBlur_891_14860"/>
</filter>
<filter id="filter3_f_891_14860" x="372.974" y="92.4204" width="334.795" height="400.106" filterUnits="userSpaceOnUse" color-interpolation-filters="sRGB">
<feFlood flood-opacity="0" result="BackgroundImageFix"/>
<feBlend mode="normal" in="SourceGraphic" in2="BackgroundImageFix" result="shape"/>
<feGaussianBlur stdDeviation="47.6968" result="effect1_foregroundBlur_891_14860"/>
</filter>
<filter id="filter4_f_891_14860" x="311.105" y="167.354" width="210.345" height="410.218" filterUnits="userSpaceOnUse" color-interpolation-filters="sRGB">
<feFlood flood-opacity="0" result="BackgroundImageFix"/>
<feBlend mode="normal" in="SourceGraphic" in2="BackgroundImageFix" result="shape"/>
<feGaussianBlur stdDeviation="20.2287" result="effect1_foregroundBlur_891_14860"/>
</filter>
<filter id="filter5_f_891_14860" x="332.939" y="229.299" width="161.177" height="167.528" filterUnits="userSpaceOnUse" color-interpolation-filters="sRGB">
<feFlood flood-opacity="0" result="BackgroundImageFix"/>
<feBlend mode="normal" in="SourceGraphic" in2="BackgroundImageFix" result="shape"/>
<feGaussianBlur stdDeviation="13.968" result="effect1_foregroundBlur_891_14860"/>
</filter>
<filter id="filter6_f_891_14860" x="292.97" y="226.557" width="178.295" height="150.847" filterUnits="userSpaceOnUse" color-interpolation-filters="sRGB">
<feFlood flood-opacity="0" result="BackgroundImageFix"/>
<feBlend mode="normal" in="SourceGraphic" in2="BackgroundImageFix" result="shape"/>
<feGaussianBlur stdDeviation="21.3433" result="effect1_foregroundBlur_891_14860"/>
</filter>
<linearGradient id="paint0_linear_891_14860" x1="408.5" y1="332.701" x2="495.828" y2="496.257" gradientUnits="userSpaceOnUse">
<stop offset="0.205643" stop-color="white"/>
<stop offset="0.694017" stop-color="#F7F7F7"/>
<stop offset="1" stop-color="white"/>
</linearGradient>
<linearGradient id="paint1_linear_891_14860" x1="408.5" y1="191" x2="408.5" y2="395.475" gradientUnits="userSpaceOnUse">
<stop stop-color="white"/>
<stop offset="1" stop-color="#F7F7F7"/>
</linearGradient>
<linearGradient id="paint2_linear_891_14860" x1="408" y1="327.409" x2="408" y2="367.945" gradientUnits="userSpaceOnUse">
<stop offset="0.205643" stop-color="white"/>
<stop offset="0.694017" stop-color="#F7F7F7"/>
<stop offset="1" stop-color="white"/>
</linearGradient>
<linearGradient id="paint3_linear_891_14860" x1="408" y1="280" x2="408" y2="348.412" gradientUnits="userSpaceOnUse">
<stop stop-color="white"/>
<stop offset="1" stop-color="#F7F7F7"/>
</linearGradient>
<linearGradient id="paint4_linear_891_14860" x1="381.053" y1="35.972" x2="125.484" y2="389" gradientUnits="userSpaceOnUse">
<stop stop-color="white"/>
<stop offset="1" stop-color="#F7F7F7"/>
</linearGradient>
<linearGradient id="paint5_linear_891_14860" x1="1134.59" y1="591.746" x2="837.887" y2="1099.01" gradientUnits="userSpaceOnUse">
<stop stop-color="white"/>
<stop offset="1" stop-color="#F7F7F7"/>
</linearGradient>
<clipPath id="clip0_891_14860">
<rect x="274" y="191" width="269" height="269" rx="85.7681" fill="white"/>
</clipPath>
<clipPath id="clip1_891_14860">
<rect x="363" y="280" width="90" height="90" rx="20" fill="white"/>
</clipPath>
</defs>
</svg>
